<svg clip-rule="evenodd" fill-rule="evenodd" stroke-linejoin="round" stroke-miterlimit="2" viewBox="0 0 1413 1321" xmlns="http://www.w3.org/2000/svg"><path d="m328.525 195.864c-10.82 4.239-16.896 15.822-23.129 24.959-6.339 9.291-12.677 18.582-19.015 27.872-5.143 7.539-10.227 15.117-15.293 22.707.203-1.281.411-2.561.612-3.843 1.317-8.377 2.549-16.767 3.662-25.174 2.136-16.135 3.647-32.353 4.129-48.626.867-29.219-2.115-58.842-11.405-86.657-9.026-27.022-24.166-51.082-45.631-69.887-19.688-17.249-44.574-28.89-70.199-33.882-56.851-11.077-117.196 15.485-150.767 62.017-1.249 1.732-2.869 5.201.6 5.583 3.301.364 7.035-2.071 9.024-4.513 33.278-40.868 89.018-56.657 139.301-42.482 24.412 6.882 47.103 20.995 64.095 39.819 18.443 20.432 29.439 45.963 35.289 72.62 5.323 24.255 5.788 49.092 4.062 73.779-.954 13.655-2.697 27.248-4.716 40.782-.138.928-.293 1.853-.435 2.779-3.41-9.343-6.662-18.755-9.9-28.193-1.263-3.679-10.742 3.241-10.718 6.299.228 28.607 7.919 56.387 19.852 82.295 1.418 3.081 6.348 3.185 9.039 2.608 4.104-.88 7.807-3.455 10.202-6.878 12.146-17.36 24.414-34.642 36.354-52.145 5.965-8.744 11.93-17.488 17.896-26.233 2.982-4.372 5.965-8.744 8.948-13.116 3.652-5.353 8.19-11.617 8.339-18.309.136-6.144-5.764-5.918-10.196-4.181z" fill="#030404" fill-rule="nonzero" transform="scale(4.16667)"/></svg>